<?xml version="1.0" encoding="UTF-8" standalone="no" ?>
<!DOCTYPE svg PUBLIC "-//W3C//DTD SVG 1.1//EN" "http://www.w3.org/Graphics/SVG/1.1/DTD/svg11.dtd">
<svg xmlns="http://www.w3.org/2000/svg" xmlns:xlink="http://www.w3.org/1999/xlink" version="1.1" width="300" height="300" viewBox="0 0 300 300" xml:space="preserve">
<desc>Created with Fabric.js 5.3.0</desc>
<defs>
</defs>
<g transform="matrix(3.51 0 0 3.51 150.4273504274 150)" id="Nhy4man8Zahzk-vgaR70h"  >
<path style="stroke: rgb(0,0,0); stroke-width: 0; stroke-dasharray: none; stroke-linecap: butt; stroke-dashoffset: 0; stroke-linejoin: miter; stroke-miterlimit: 4; fill: rgb(217,217,217); fill-rule: nonzero; opacity: 1;" vector-effect="non-scaling-stroke"  transform=" translate(0, 0)" d="M 0 -42.73504 C 23.58974 -42.73504 42.73504 -23.58974 42.73504 0 C 42.73504 23.58974 23.58974 42.73504 0 42.73504 C -23.58974 42.73504 -42.73504 23.58974 -42.73504 0 C -42.73504 -23.58974 -23.58974 -42.73504 0 -42.73504 z" stroke-linecap="round" />
</g>
<g transform="matrix(3.24 0 0 3.24 150.4273504274 150)" id="nqnQ0Cs-Vh9lYtbeWX3Mm"  >
<path style="stroke: rgb(0,0,0); stroke-width: 0; stroke-dasharray: none; stroke-linecap: butt; stroke-dashoffset: 0; stroke-linejoin: miter; stroke-miterlimit: 4; fill: rgb(255,255,255); fill-rule: nonzero; opacity: 1;" vector-effect="non-scaling-stroke"  transform=" translate(0, 0)" d="M 0 -42.73504 C 23.58974 -42.73504 42.73504 -23.58974 42.73504 0 C 42.73504 23.58974 23.58974 42.73504 0 42.73504 C -23.58974 42.73504 -42.73504 23.58974 -42.73504 0 C -42.73504 -23.58974 -23.58974 -42.73504 0 -42.73504 z" stroke-linecap="round" />
</g>
<g transform="matrix(1.9091883098 1.9091883098 -0.1145512986 0.1145512986 150.4273504273 150)" id="A9itmVB6RR_wLq5W4GgAV"  >
<path style="stroke: rgb(0,0,0); stroke-width: 0; stroke-dasharray: none; stroke-linecap: butt; stroke-dashoffset: 0; stroke-linejoin: miter; stroke-miterlimit: 4; fill: rgb(40,75,99); fill-rule: nonzero; opacity: 1;" vector-effect="non-scaling-stroke"  transform=" translate(0, 0)" d="M -42.73504 -42.73504 L 42.73505 -42.73504 L 42.73505 42.73505 L -42.73504 42.73505 z" stroke-linecap="round" />
</g>
<g transform="matrix(0.1145512986 0.1145512986 -1.9091883092 1.9091883092 150.4273504273 150)" id="sWwiLcx_s6RND71lSJcTo"  >
<path style="stroke: rgb(0,0,0); stroke-width: 0; stroke-dasharray: none; stroke-linecap: butt; stroke-dashoffset: 0; stroke-linejoin: miter; stroke-miterlimit: 4; fill: rgb(40,75,99); fill-rule: nonzero; opacity: 1;" vector-effect="non-scaling-stroke"  transform=" translate(0, 0)" d="M -42.73504 -42.73504 L 42.73505 -42.73504 L 42.73505 42.73505 L -42.73504 42.73505 z" stroke-linecap="round" />
</g>
</svg>