<?xml version="1.0" encoding="UTF-8" standalone="no" ?>
<!DOCTYPE svg PUBLIC "-//W3C//DTD SVG 1.1//EN" "http://www.w3.org/Graphics/SVG/1.1/DTD/svg11.dtd">
<svg xmlns="http://www.w3.org/2000/svg" xmlns:xlink="http://www.w3.org/1999/xlink" version="1.1" width="300" height="300" viewBox="0 0 300 300" xml:space="preserve">
<desc>Created with Fabric.js 5.3.0</desc>
<defs>
</defs>
<g transform="matrix(3.75 0 0 3.75 149.6644295302 149.6644295302)" id="_43qUy2YHYpKjHC1On5eL"  >
<g style="" vector-effect="non-scaling-stroke"   >
		<g transform="matrix(1 0 0 1 0 21.1)" id="OXom_DnMQ7OycW-QvhGdX"  >
<path style="stroke: none; stroke-width: 1; stroke-dasharray: none; stroke-linecap: butt; stroke-dashoffset: 0; stroke-linejoin: miter; stroke-miterlimit: 4; fill: #D9D9D9; fill-rule: nonzero; opacity: 1;" vector-effect="non-scaling-stroke"  transform=" translate(-40, -61.1)" d="M 40 53.3 C 35.7 53.3 32.2 56.8 32.2 61.099999999999994 C 32.2 65.39999999999999 35.7 68.89999999999999 40 68.89999999999999 C 44.3 68.89999999999999 47.8 65.39999999999999 47.8 61.099999999999994 C 47.8 56.8 44.3 53.3 40 53.3 z" stroke-linecap="round" />
</g>
		<g transform="matrix(1 0 0 1 0 21)" id="5ZD38WRskAK4damicEbQk"  >
<path style="stroke: none; stroke-width: 1; stroke-dasharray: none; stroke-linecap: butt; stroke-dashoffset: 0; stroke-linejoin: miter; stroke-miterlimit: 4; fill: #FFFFFF; fill-rule: nonzero; opacity: 1;" vector-effect="non-scaling-stroke"  transform=" translate(-40, -61)" d="M 43 61 C 43 62.6 41.7 64 40 64 C 38.3 64 37 62.7 37 61 C 37 59.4 38.3 58 40 58 C 41.7 58 43 59.4 43 61 z" stroke-linecap="round" />
</g>
		<g transform="matrix(1 0 0 1 0 6.95)" id="SU112E4VDHgfhbCxBAteJ"  >
<path style="stroke: none; stroke-width: 1; stroke-dasharray: none; stroke-linecap: butt; stroke-dashoffset: 0; stroke-linejoin: miter; stroke-miterlimit: 4; fill: #D9D9D9; fill-rule: nonzero; opacity: 1;" vector-effect="non-scaling-stroke"  transform=" translate(-40, -46.95)" d="M 40 41.8 C 46.3 41.8 52.2 44.199999999999996 56.6 48.699999999999996 L 53.2 52.099999999999994 C 49.7 48.599999999999994 45 46.599999999999994 40 46.599999999999994 C 35 46.599999999999994 30.3 48.49999999999999 26.8 52.099999999999994 L 23.400000000000002 48.699999999999996 C 27.8 44.3 33.7 41.8 40 41.8 z" stroke-linecap="round" />
</g>
		<g transform="matrix(1 0 0 1 0 -5.7)" id="6gIQt5H0t1Jfw0Gb0xhD3"  >
<path style="stroke: none; stroke-width: 1; stroke-dasharray: none; stroke-linecap: butt; stroke-dashoffset: 0; stroke-linejoin: miter; stroke-miterlimit: 4; fill: #D9D9D9; fill-rule: nonzero; opacity: 1;" vector-effect="non-scaling-stroke"  transform=" translate(-40, -34.3)" d="M 40 26.8 C 50.6 26.8 60.6 30.9 68.1 38.4 L 64.69999999999999 41.8 C 58.1 35.3 49.3 31.6 40 31.6 C 30.700000000000003 31.6 21.9 35.2 15.3 41.8 L 11.9 38.4 C 19.4 30.9 29.4 26.8 40 26.8 z" stroke-linecap="round" />
</g>
		<g transform="matrix(1 0 0 1 0 -18.8)" id="K8wjxOQGdKVrm0715L7wz"  >
<path style="stroke: none; stroke-width: 1; stroke-dasharray: none; stroke-linecap: butt; stroke-dashoffset: 0; stroke-linejoin: miter; stroke-miterlimit: 4; fill: #D9D9D9; fill-rule: nonzero; opacity: 1;" vector-effect="non-scaling-stroke"  transform=" translate(-40, -21.2)" d="M 40 11.2 C 55.1 11.2 69.3 17.1 80 27.8 L 76.6 31.2 C 66.8 21.4 53.8 16 40 16 C 26.200000000000003 16 13.2 21.4 3.4 31.1 L 0 27.7 C 10.7 17 24.9 11.2 40 11.2 z" stroke-linecap="round" />
</g>
</g>
</g>
<g transform="matrix(-1 0 0 -1 205.7046979866 150)" id="kMANiFT7i1KhQCP2DkmCH"  >
<g style="" vector-effect="non-scaling-stroke"   >
		<g transform="matrix(1 0 0 1 0 4)" id="6HhjgpnkQ8Tjwlz5qh4bM"  >
<path style="stroke: none; stroke-width: 1; stroke-dasharray: none; stroke-linecap: butt; stroke-dashoffset: 0; stroke-linejoin: miter; stroke-miterlimit: 4; fill: #284B63; fill-rule: nonzero; opacity: 1;" vector-effect="non-scaling-stroke"  transform=" translate(-40, -40)" d="M 40 0 C 17.9 0 0 17.9 0 40 C 0 62.1 17.9 80 40 80 C 62.1 80 80 62.1 80 40 C 80 17.9 62.1 0 40 0 z" stroke-linecap="round" />
</g>
		<g transform="matrix(1 0 0 1 0 4)" id="--GWbpq84yxiQg8nsxjqu"  >
<path style="stroke: none; stroke-width: 1; stroke-dasharray: none; stroke-linecap: butt; stroke-dashoffset: 0; stroke-linejoin: miter; stroke-miterlimit: 4; fill: #FFFFFF; fill-rule: nonzero; opacity: 1;" vector-effect="non-scaling-stroke"  transform=" translate(-40, -40)" d="M 47.6 19.6 C 47.6 23.8 44.2 27.200000000000003 40 27.200000000000003 C 35.8 27.200000000000003 32.4 23.800000000000004 32.4 19.6 C 32.4 15.399999999999999 35.8 12 40 12 C 44.2 12.1 47.6 15.5 47.6 19.6 z M 40 31.5 C 36.8 31.5 34.2 34.1 34.2 37.3 L 34.2 62.199999999999996 C 34.2 65.39999999999999 36.800000000000004 68 40 68 C 43.199999999999996 68 45.8 65.4 45.8 62.2 L 45.8 37.3 C 45.8 34.1 43.2 31.5 40 31.5 z" stroke-linecap="round" />
</g>
</g>
</g>
</svg>